<svg xmlns="http://www.w3.org/2000/svg" xmlns:xlink="http://www.w3.org/1999/xlink" width="1000" zoomAndPan="magnify" viewBox="0 0 750 225" height="300" preserveAspectRatio="xMidYMid meet" version="1.0"><defs><g/><clipPath id="a21519fced"><path d="M 218 123 L 222.75 123 L 222.75 128 L 218 128 Z M 218 123 " clip-rule="nonzero"/></clipPath><clipPath id="bfc9e0b6c1"><path d="M 218 87 L 222.75 87 L 222.75 92 L 218 92 Z M 218 87 " clip-rule="nonzero"/></clipPath></defs><g fill="#d1d5db" fill-opacity="1"><g transform="translate(202.40151, 153.434276)"><g><path d="M 35.515625 -56 L 21.90625 -56 L 21.90625 0 L 11.125 0 L 11.125 -56 L 2.71875 -56 L 2.71875 -64.890625 L 11.125 -64.890625 L 11.125 -69.5 C 11.125 -76.757812 13 -82.066406 16.75 -85.421875 C 20.5 -88.785156 26.519531 -90.46875 34.8125 -90.46875 L 34.8125 -81.46875 C 30.070312 -81.46875 26.734375 -80.535156 24.796875 -78.671875 C 22.867188 -76.816406 21.90625 -73.757812 21.90625 -69.5 L 21.90625 -64.890625 L 35.515625 -64.890625 Z M 35.515625 -56 "/></g></g></g><g fill="#d1d5db" fill-opacity="1"><g transform="translate(230.224397, 153.434276)"><g><path d="M 37.421875 1.0625 C 31.335938 1.0625 25.828125 -0.316406 20.890625 -3.078125 C 15.960938 -5.835938 12.097656 -9.765625 9.296875 -14.859375 C 6.492188 -19.953125 5.09375 -25.851562 5.09375 -32.5625 C 5.09375 -39.195312 6.53125 -45.054688 9.40625 -50.140625 C 12.289062 -55.234375 16.21875 -59.140625 21.1875 -61.859375 C 26.164062 -64.585938 31.734375 -65.953125 37.890625 -65.953125 C 44.046875 -65.953125 49.609375 -64.585938 54.578125 -61.859375 C 59.554688 -59.140625 63.484375 -55.253906 66.359375 -50.203125 C 69.242188 -45.148438 70.6875 -39.269531 70.6875 -32.5625 C 70.6875 -25.851562 69.207031 -19.953125 66.25 -14.859375 C 63.289062 -9.765625 59.285156 -5.835938 54.234375 -3.078125 C 49.179688 -0.316406 43.578125 1.0625 37.421875 1.0625 Z M 37.421875 -8.40625 C 41.285156 -8.40625 44.914062 -9.3125 48.3125 -11.125 C 51.707031 -12.945312 54.445312 -15.671875 56.53125 -19.296875 C 58.625 -22.929688 59.671875 -27.351562 59.671875 -32.5625 C 59.671875 -37.769531 58.644531 -42.1875 56.59375 -45.8125 C 54.539062 -49.445312 51.859375 -52.148438 48.546875 -53.921875 C 45.234375 -55.703125 41.640625 -56.59375 37.765625 -56.59375 C 33.816406 -56.59375 30.207031 -55.703125 26.9375 -53.921875 C 23.664062 -52.148438 21.039062 -49.445312 19.0625 -45.8125 C 17.09375 -42.1875 16.109375 -37.769531 16.109375 -32.5625 C 16.109375 -27.269531 17.070312 -22.804688 19 -19.171875 C 20.9375 -15.546875 23.519531 -12.84375 26.75 -11.0625 C 29.988281 -9.289062 33.546875 -8.40625 37.421875 -8.40625 Z M 37.421875 -8.40625 "/></g></g></g><g fill="#d1d5db" fill-opacity="1"><g transform="translate(294.86918, 153.434276)"><g><path d="M 19.890625 -54.34375 C 21.785156 -58.050781 24.488281 -60.929688 28 -62.984375 C 31.507812 -65.046875 35.789062 -66.078125 40.84375 -66.078125 L 40.84375 -54.9375 L 38.015625 -54.9375 C 25.929688 -54.9375 19.890625 -48.382812 19.890625 -35.28125 L 19.890625 0 L 9.125 0 L 9.125 -64.890625 L 19.890625 -64.890625 Z M 19.890625 -54.34375 "/></g></g></g><g fill="#d1d5db" fill-opacity="1"><g transform="translate(327.901602, 153.434276)"><g><path d="M 35.875 -65.953125 C 41.476562 -65.953125 46.390625 -64.726562 50.609375 -62.28125 C 54.835938 -59.832031 57.976562 -56.753906 60.03125 -53.046875 L 60.03125 -64.890625 L 70.921875 -64.890625 L 70.921875 1.421875 C 70.921875 7.335938 69.65625 12.601562 67.125 17.21875 C 64.601562 21.84375 60.992188 25.457031 56.296875 28.0625 C 51.597656 30.664062 46.132812 31.96875 39.90625 31.96875 C 31.375 31.96875 24.265625 29.953125 18.578125 25.921875 C 12.898438 21.898438 9.550781 16.414062 8.53125 9.46875 L 19.1875 9.46875 C 20.363281 13.414062 22.804688 16.59375 26.515625 19 C 30.234375 21.40625 34.695312 22.609375 39.90625 22.609375 C 45.820312 22.609375 50.65625 20.753906 54.40625 17.046875 C 58.15625 13.335938 60.03125 8.128906 60.03125 1.421875 L 60.03125 -12.203125 C 57.894531 -8.410156 54.734375 -5.25 50.546875 -2.71875 C 46.367188 -0.195312 41.476562 1.0625 35.875 1.0625 C 30.113281 1.0625 24.882812 -0.351562 20.1875 -3.1875 C 15.488281 -6.03125 11.796875 -10.019531 9.109375 -15.15625 C 6.429688 -20.289062 5.09375 -26.132812 5.09375 -32.6875 C 5.09375 -39.3125 6.429688 -45.128906 9.109375 -50.140625 C 11.796875 -55.148438 15.488281 -59.035156 20.1875 -61.796875 C 24.882812 -64.566406 30.113281 -65.953125 35.875 -65.953125 Z M 60.03125 -32.5625 C 60.03125 -37.457031 59.039062 -41.71875 57.0625 -45.34375 C 55.09375 -48.976562 52.429688 -51.757812 49.078125 -53.6875 C 45.722656 -55.625 42.035156 -56.59375 38.015625 -56.59375 C 33.984375 -56.59375 30.3125 -55.644531 27 -53.75 C 23.6875 -51.863281 21.039062 -49.101562 19.0625 -45.46875 C 17.09375 -41.832031 16.109375 -37.570312 16.109375 -32.6875 C 16.109375 -27.707031 17.09375 -23.378906 19.0625 -19.703125 C 21.039062 -16.035156 23.6875 -13.234375 27 -11.296875 C 30.3125 -9.367188 33.984375 -8.40625 38.015625 -8.40625 C 42.035156 -8.40625 45.722656 -9.367188 49.078125 -11.296875 C 52.429688 -13.234375 55.09375 -16.035156 57.0625 -19.703125 C 59.039062 -23.378906 60.03125 -27.664062 60.03125 -32.5625 Z M 60.03125 -32.5625 "/></g></g></g><g fill="#d1d5db" fill-opacity="1"><g transform="translate(396.808721, 153.434276)"><g><path d="M 68.328125 -34.9375 C 68.328125 -32.875 68.207031 -30.703125 67.96875 -28.421875 L 16.109375 -28.421875 C 16.492188 -22.023438 18.679688 -17.03125 22.671875 -13.4375 C 26.660156 -9.84375 31.492188 -8.046875 37.171875 -8.046875 C 41.835938 -8.046875 45.726562 -9.128906 48.84375 -11.296875 C 51.957031 -13.472656 54.148438 -16.378906 55.421875 -20.015625 L 67.015625 -20.015625 C 65.273438 -13.773438 61.800781 -8.703125 56.59375 -4.796875 C 51.382812 -0.890625 44.910156 1.0625 37.171875 1.0625 C 31.015625 1.0625 25.507812 -0.316406 20.65625 -3.078125 C 15.800781 -5.835938 11.992188 -9.765625 9.234375 -14.859375 C 6.472656 -19.953125 5.09375 -25.851562 5.09375 -32.5625 C 5.09375 -39.269531 6.429688 -45.148438 9.109375 -50.203125 C 11.796875 -55.253906 15.566406 -59.140625 20.421875 -61.859375 C 25.273438 -64.585938 30.859375 -65.953125 37.171875 -65.953125 C 43.335938 -65.953125 48.785156 -64.609375 53.515625 -61.921875 C 58.253906 -59.242188 61.90625 -55.554688 64.46875 -50.859375 C 67.039062 -46.160156 68.328125 -40.851562 68.328125 -34.9375 Z M 57.1875 -37.171875 C 57.1875 -41.285156 56.28125 -44.820312 54.46875 -47.78125 C 52.65625 -50.738281 50.1875 -52.984375 47.0625 -54.515625 C 43.945312 -56.054688 40.492188 -56.828125 36.703125 -56.828125 C 31.253906 -56.828125 26.613281 -55.09375 22.78125 -51.625 C 18.957031 -48.15625 16.769531 -43.335938 16.21875 -37.171875 Z M 57.1875 -37.171875 "/></g></g></g><g fill="#d1d5db" fill-opacity="1"><g transform="translate(459.085533, 153.434276)"><g><path d="M 22.265625 -56 L 22.265625 -17.765625 C 22.265625 -14.609375 22.929688 -12.378906 24.265625 -11.078125 C 25.609375 -9.773438 27.941406 -9.125 31.265625 -9.125 L 39.1875 -9.125 L 39.1875 0 L 29.484375 0 C 23.484375 0 18.984375 -1.378906 15.984375 -4.140625 C 12.984375 -6.898438 11.484375 -11.441406 11.484375 -17.765625 L 11.484375 -56 L 3.078125 -56 L 3.078125 -64.890625 L 11.484375 -64.890625 L 11.484375 -81.234375 L 22.265625 -81.234375 L 22.265625 -64.890625 L 39.1875 -64.890625 L 39.1875 -56 Z M 22.265625 -56 "/></g></g></g><g fill="#d1d5db" fill-opacity="1"><g transform="translate(491.052374, 153.434276)"><g><path d="M 68.328125 -34.9375 C 68.328125 -32.875 68.207031 -30.703125 67.96875 -28.421875 L 16.109375 -28.421875 C 16.492188 -22.023438 18.679688 -17.03125 22.671875 -13.4375 C 26.660156 -9.84375 31.492188 -8.046875 37.171875 -8.046875 C 41.835938 -8.046875 45.726562 -9.128906 48.84375 -11.296875 C 51.957031 -13.472656 54.148438 -16.378906 55.421875 -20.015625 L 67.015625 -20.015625 C 65.273438 -13.773438 61.800781 -8.703125 56.59375 -4.796875 C 51.382812 -0.890625 44.910156 1.0625 37.171875 1.0625 C 31.015625 1.0625 25.507812 -0.316406 20.65625 -3.078125 C 15.800781 -5.835938 11.992188 -9.765625 9.234375 -14.859375 C 6.472656 -19.953125 5.09375 -25.851562 5.09375 -32.5625 C 5.09375 -39.269531 6.429688 -45.148438 9.109375 -50.203125 C 11.796875 -55.253906 15.566406 -59.140625 20.421875 -61.859375 C 25.273438 -64.585938 30.859375 -65.953125 37.171875 -65.953125 C 43.335938 -65.953125 48.785156 -64.609375 53.515625 -61.921875 C 58.253906 -59.242188 61.90625 -55.554688 64.46875 -50.859375 C 67.039062 -46.160156 68.328125 -40.851562 68.328125 -34.9375 Z M 57.1875 -37.171875 C 57.1875 -41.285156 56.28125 -44.820312 54.46875 -47.78125 C 52.65625 -50.738281 50.1875 -52.984375 47.0625 -54.515625 C 43.945312 -56.054688 40.492188 -56.828125 36.703125 -56.828125 C 31.253906 -56.828125 26.613281 -55.09375 22.78125 -51.625 C 18.957031 -48.15625 16.769531 -43.335938 16.21875 -37.171875 Z M 57.1875 -37.171875 "/></g></g></g><g fill="#d1d5db" fill-opacity="1"><g transform="translate(553.329199, 153.434276)"><g><path d="M 5.09375 -32.5625 C 5.09375 -39.269531 6.429688 -45.128906 9.109375 -50.140625 C 11.796875 -55.148438 15.523438 -59.035156 20.296875 -61.796875 C 25.078125 -64.566406 30.546875 -65.953125 36.703125 -65.953125 C 44.679688 -65.953125 51.253906 -64.015625 56.421875 -60.140625 C 61.585938 -56.273438 65 -50.910156 66.65625 -44.046875 L 55.0625 -44.046875 C 53.957031 -47.992188 51.804688 -51.109375 48.609375 -53.390625 C 45.410156 -55.679688 41.441406 -56.828125 36.703125 -56.828125 C 30.546875 -56.828125 25.570312 -54.71875 21.78125 -50.5 C 18 -46.28125 16.109375 -40.300781 16.109375 -32.5625 C 16.109375 -24.75 18 -18.707031 21.78125 -14.4375 C 25.570312 -10.175781 30.546875 -8.046875 36.703125 -8.046875 C 41.441406 -8.046875 45.390625 -9.148438 48.546875 -11.359375 C 51.703125 -13.578125 53.875 -16.738281 55.0625 -20.84375 L 66.65625 -20.84375 C 64.925781 -14.207031 61.453125 -8.894531 56.234375 -4.90625 C 51.023438 -0.925781 44.515625 1.0625 36.703125 1.0625 C 30.546875 1.0625 25.078125 -0.316406 20.296875 -3.078125 C 15.523438 -5.835938 11.796875 -9.742188 9.109375 -14.796875 C 6.429688 -19.847656 5.09375 -25.769531 5.09375 -32.5625 Z M 5.09375 -32.5625 "/></g></g></g><g fill="#d1d5db" fill-opacity="1"><g transform="translate(614.066822, 153.434276)"><g><path d="M 41.328125 -66.078125 C 46.222656 -66.078125 50.640625 -65.03125 54.578125 -62.9375 C 58.523438 -60.84375 61.625 -57.703125 63.875 -53.515625 C 66.125 -49.335938 67.25 -44.25 67.25 -38.25 L 67.25 0 L 56.59375 0 L 56.59375 -36.703125 C 56.59375 -43.179688 54.972656 -48.132812 51.734375 -51.5625 C 48.503906 -55 44.085938 -56.71875 38.484375 -56.71875 C 32.796875 -56.71875 28.273438 -54.941406 24.921875 -51.390625 C 21.566406 -47.835938 19.890625 -42.664062 19.890625 -35.875 L 19.890625 0 L 9.125 0 L 9.125 -87.625 L 19.890625 -87.625 L 19.890625 -55.65625 C 22.023438 -58.96875 24.96875 -61.53125 28.71875 -63.34375 C 32.46875 -65.164062 36.671875 -66.078125 41.328125 -66.078125 Z M 41.328125 -66.078125 "/></g></g></g><g fill="#d1d5db" fill-opacity="1"><g transform="translate(678.713068, 153.434276)"><g/></g></g><path fill="#d1d5db" d="M 204.859375 175.4375 C 204.859375 175.722656 204.804688 176 204.695312 176.265625 C 204.585938 176.53125 204.425781 176.765625 204.222656 176.96875 C 204.019531 177.171875 203.789062 177.328125 203.523438 177.4375 C 203.257812 177.546875 202.980469 177.601562 202.691406 177.601562 C 202.40625 177.601562 202.128906 177.546875 201.863281 177.4375 C 201.597656 177.328125 201.363281 177.171875 201.160156 176.96875 C 200.957031 176.765625 200.800781 176.53125 200.691406 176.265625 C 200.582031 176 200.527344 175.722656 200.527344 175.4375 C 200.527344 175.148438 200.582031 174.875 200.691406 174.609375 C 200.800781 174.34375 200.957031 174.109375 201.160156 173.90625 C 201.363281 173.703125 201.597656 173.546875 201.863281 173.4375 C 202.128906 173.324219 202.40625 173.269531 202.691406 173.269531 C 202.980469 173.269531 203.257812 173.324219 203.523438 173.4375 C 203.789062 173.546875 204.019531 173.703125 204.222656 173.90625 C 204.425781 174.109375 204.585938 174.34375 204.695312 174.609375 C 204.804688 174.875 204.859375 175.148438 204.859375 175.4375 Z M 204.859375 175.4375 " fill-opacity="1" fill-rule="nonzero"/><path fill="#d1d5db" d="M 176.773438 199.855469 C 177.011719 200.09375 177.195312 200.371094 177.324219 200.679688 C 177.453125 200.992188 177.515625 201.316406 177.515625 201.652344 C 177.515625 201.992188 177.453125 202.316406 177.324219 202.625 C 177.195312 202.9375 177.011719 203.210938 176.773438 203.453125 C 176.535156 203.691406 176.257812 203.875 175.949219 204.003906 C 175.636719 204.132812 175.3125 204.195312 174.976562 204.195312 C 174.636719 204.195312 174.3125 204.132812 174.003906 204.003906 C 173.691406 203.875 173.414062 203.691406 173.175781 203.453125 C 172.9375 203.210938 172.753906 202.9375 172.625 202.625 C 172.496094 202.316406 172.433594 201.992188 172.433594 201.652344 C 172.433594 201.316406 172.496094 200.992188 172.625 200.679688 C 172.753906 200.371094 172.9375 200.09375 173.175781 199.855469 C 173.414062 199.617188 173.691406 199.433594 174.003906 199.304688 C 174.3125 199.175781 174.636719 199.113281 174.976562 199.113281 C 175.3125 199.113281 175.636719 199.175781 175.949219 199.304688 C 176.257812 199.433594 176.535156 199.617188 176.773438 199.855469 Z M 176.773438 199.855469 " fill-opacity="1" fill-rule="nonzero"/><path fill="#d1d5db" d="M 154.769531 189.078125 C 154.84375 189.382812 154.851562 189.695312 154.804688 190.007812 C 154.753906 190.320312 154.644531 190.609375 154.476562 190.878906 C 154.3125 191.148438 154.097656 191.375 153.84375 191.558594 C 153.585938 191.746094 153.304688 191.875 152.996094 191.945312 C 152.6875 192.019531 152.378906 192.03125 152.066406 191.980469 C 151.753906 191.929688 151.464844 191.820312 151.195312 191.652344 C 150.925781 191.488281 150.699219 191.277344 150.511719 191.019531 C 150.328125 190.761719 150.199219 190.480469 150.125 190.171875 C 150.054688 189.863281 150.042969 189.554688 150.09375 189.242188 C 150.144531 188.929688 150.253906 188.640625 150.417969 188.371094 C 150.585938 188.101562 150.796875 187.875 151.054688 187.6875 C 151.308594 187.503906 151.59375 187.375 151.898438 187.300781 C 152.207031 187.230469 152.519531 187.21875 152.832031 187.269531 C 153.140625 187.320312 153.433594 187.429688 153.703125 187.59375 C 153.972656 187.761719 154.199219 187.972656 154.382812 188.230469 C 154.566406 188.484375 154.695312 188.769531 154.769531 189.078125 Z M 154.769531 189.078125 " fill-opacity="1" fill-rule="nonzero"/><path fill="#d1d5db" d="M 119.972656 207.425781 C 119.972656 207.707031 119.917969 207.980469 119.808594 208.242188 C 119.699219 208.503906 119.546875 208.734375 119.34375 208.9375 C 119.144531 209.136719 118.914062 209.292969 118.652344 209.402344 C 118.390625 209.507812 118.117188 209.5625 117.832031 209.5625 C 117.546875 209.5625 117.277344 209.507812 117.011719 209.402344 C 116.75 209.292969 116.519531 209.136719 116.320312 208.9375 C 116.117188 208.734375 115.964844 208.503906 115.855469 208.242188 C 115.746094 207.980469 115.691406 207.707031 115.691406 207.425781 C 115.691406 207.140625 115.746094 206.867188 115.855469 206.605469 C 115.964844 206.34375 116.117188 206.113281 116.320312 205.910156 C 116.519531 205.710938 116.75 205.554688 117.011719 205.449219 C 117.277344 205.339844 117.546875 205.285156 117.832031 205.285156 C 118.117188 205.285156 118.390625 205.339844 118.652344 205.449219 C 118.914062 205.554688 119.144531 205.710938 119.34375 205.910156 C 119.546875 206.113281 119.699219 206.34375 119.808594 206.605469 C 119.917969 206.867188 119.972656 207.140625 119.972656 207.425781 Z M 119.972656 207.425781 " fill-opacity="1" fill-rule="nonzero"/><path fill="#d1d5db" d="M 140.921875 153.699219 C 141.257812 153.839844 141.550781 154.035156 141.804688 154.289062 C 142.0625 154.542969 142.257812 154.839844 142.394531 155.171875 C 142.535156 155.507812 142.601562 155.851562 142.601562 156.214844 C 142.601562 156.574219 142.535156 156.921875 142.394531 157.253906 C 142.257812 157.589844 142.0625 157.882812 141.804688 158.136719 C 141.550781 158.394531 141.257812 158.589844 140.921875 158.726562 C 140.589844 158.867188 140.242188 158.933594 139.882812 158.933594 C 139.519531 158.933594 139.175781 158.867188 138.839844 158.726562 C 138.507812 158.589844 138.214844 158.394531 137.957031 158.136719 C 137.703125 157.882812 137.507812 157.589844 137.367188 157.253906 C 137.230469 156.921875 137.160156 156.574219 137.160156 156.214844 C 137.160156 155.851562 137.230469 155.507812 137.367188 155.171875 C 137.507812 154.839844 137.703125 154.542969 137.957031 154.289062 C 138.214844 154.035156 138.507812 153.839844 138.839844 153.699219 C 139.175781 153.5625 139.519531 153.492188 139.882812 153.492188 C 140.242188 153.492188 140.589844 153.5625 140.921875 153.699219 Z M 140.921875 153.699219 " fill-opacity="1" fill-rule="nonzero"/><path fill="#d1d5db" d="M 198.007812 32.550781 C 198.007812 32.796875 197.960938 33.035156 197.867188 33.261719 C 197.769531 33.488281 197.636719 33.691406 197.464844 33.863281 C 197.289062 34.039062 197.089844 34.171875 196.859375 34.265625 C 196.632812 34.363281 196.394531 34.410156 196.148438 34.410156 C 195.902344 34.410156 195.667969 34.363281 195.4375 34.265625 C 195.210938 34.171875 195.011719 34.039062 194.835938 33.863281 C 194.664062 33.691406 194.527344 33.488281 194.433594 33.261719 C 194.339844 33.035156 194.292969 32.796875 194.292969 32.550781 C 194.292969 32.304688 194.339844 32.066406 194.433594 31.839844 C 194.527344 31.613281 194.664062 31.410156 194.835938 31.238281 C 195.011719 31.0625 195.210938 30.929688 195.4375 30.835938 C 195.667969 30.742188 195.902344 30.695312 196.148438 30.695312 C 196.394531 30.695312 196.632812 30.742188 196.859375 30.835938 C 197.089844 30.929688 197.289062 31.0625 197.464844 31.238281 C 197.636719 31.410156 197.769531 31.613281 197.867188 31.839844 C 197.960938 32.066406 198.007812 32.304688 198.007812 32.550781 Z M 198.007812 32.550781 " fill-opacity="1" fill-rule="nonzero"/><path fill="#d1d5db" d="M 215.609375 65.265625 C 216.585938 65.265625 217.378906 64.476562 217.378906 63.5 C 217.378906 62.523438 216.585938 61.730469 215.609375 61.730469 C 214.632812 61.730469 213.839844 62.523438 213.839844 63.5 C 213.839844 64.476562 214.632812 65.265625 215.609375 65.265625 Z M 215.609375 65.265625 " fill-opacity="1" fill-rule="nonzero"/><path fill="#d1d5db" d="M 146.6875 56.988281 C 146.902344 57.203125 147.070312 57.453125 147.1875 57.734375 C 147.304688 58.015625 147.363281 58.308594 147.363281 58.613281 C 147.363281 58.917969 147.304688 59.214844 147.1875 59.496094 C 147.070312 59.777344 146.902344 60.027344 146.6875 60.242188 C 146.472656 60.457031 146.222656 60.625 145.941406 60.738281 C 145.660156 60.855469 145.367188 60.914062 145.0625 60.914062 C 144.757812 60.914062 144.464844 60.855469 144.179688 60.738281 C 143.898438 60.625 143.652344 60.457031 143.433594 60.242188 C 143.21875 60.027344 143.054688 59.777344 142.9375 59.496094 C 142.820312 59.214844 142.761719 58.917969 142.761719 58.613281 C 142.761719 58.308594 142.820312 58.015625 142.9375 57.734375 C 143.054688 57.453125 143.21875 57.203125 143.433594 56.988281 C 143.652344 56.773438 143.898438 56.605469 144.179688 56.488281 C 144.464844 56.371094 144.757812 56.3125 145.0625 56.3125 C 145.367188 56.3125 145.660156 56.371094 145.941406 56.488281 C 146.222656 56.605469 146.472656 56.773438 146.6875 56.988281 Z M 146.6875 56.988281 " fill-opacity="1" fill-rule="nonzero"/><path fill="#d1d5db" d="M 167.34375 62.847656 C 167.5625 63.066406 167.726562 63.3125 167.84375 63.59375 C 167.960938 63.878906 168.019531 64.171875 168.019531 64.476562 C 168.019531 64.78125 167.960938 65.074219 167.84375 65.355469 C 167.726562 65.636719 167.5625 65.886719 167.34375 66.101562 C 167.128906 66.316406 166.882812 66.484375 166.597656 66.601562 C 166.316406 66.71875 166.023438 66.777344 165.71875 66.777344 C 165.414062 66.777344 165.121094 66.71875 164.839844 66.601562 C 164.558594 66.484375 164.308594 66.316406 164.09375 66.101562 C 163.875 65.886719 163.710938 65.636719 163.59375 65.355469 C 163.476562 65.074219 163.417969 64.78125 163.417969 64.476562 C 163.417969 64.171875 163.476562 63.878906 163.59375 63.59375 C 163.710938 63.3125 163.875 63.066406 164.09375 62.847656 C 164.308594 62.632812 164.558594 62.46875 164.839844 62.351562 C 165.121094 62.234375 165.414062 62.175781 165.71875 62.175781 C 166.023438 62.175781 166.316406 62.234375 166.597656 62.351562 C 166.882812 62.46875 167.128906 62.632812 167.34375 62.847656 Z M 167.34375 62.847656 " fill-opacity="1" fill-rule="nonzero"/><path fill="#d1d5db" d="M 170.589844 81.640625 C 170.871094 81.757812 171.121094 81.925781 171.335938 82.140625 C 171.550781 82.355469 171.71875 82.605469 171.835938 82.886719 C 171.949219 83.167969 172.007812 83.460938 172.007812 83.765625 C 172.007812 84.070312 171.949219 84.367188 171.835938 84.648438 C 171.71875 84.929688 171.550781 85.179688 171.335938 85.394531 C 171.121094 85.609375 170.871094 85.777344 170.589844 85.890625 C 170.308594 86.007812 170.015625 86.066406 169.707031 86.066406 C 169.402344 86.066406 169.109375 86.007812 168.828125 85.890625 C 168.546875 85.777344 168.296875 85.609375 168.082031 85.394531 C 167.867188 85.179688 167.699219 84.929688 167.582031 84.648438 C 167.464844 84.367188 167.410156 84.070312 167.410156 83.765625 C 167.410156 83.460938 167.464844 83.167969 167.582031 82.886719 C 167.699219 82.605469 167.867188 82.355469 168.082031 82.140625 C 168.296875 81.925781 168.546875 81.757812 168.828125 81.640625 C 169.109375 81.523438 169.402344 81.464844 169.707031 81.464844 C 170.015625 81.464844 170.308594 81.523438 170.589844 81.640625 Z M 170.589844 81.640625 " fill-opacity="1" fill-rule="nonzero"/><path fill="#d1d5db" d="M 170.253906 126.382812 C 170.324219 126.679688 170.335938 126.980469 170.285156 127.28125 C 170.238281 127.582031 170.132812 127.863281 169.972656 128.121094 C 169.8125 128.382812 169.609375 128.601562 169.359375 128.777344 C 169.113281 128.957031 168.839844 129.082031 168.542969 129.152344 C 168.246094 129.222656 167.949219 129.230469 167.648438 129.183594 C 167.34375 129.132812 167.066406 129.027344 166.804688 128.867188 C 166.546875 128.707031 166.328125 128.503906 166.148438 128.257812 C 165.972656 128.007812 165.847656 127.738281 165.777344 127.441406 C 165.707031 127.144531 165.695312 126.84375 165.746094 126.542969 C 165.792969 126.242188 165.898438 125.960938 166.058594 125.703125 C 166.21875 125.441406 166.421875 125.222656 166.671875 125.046875 C 166.917969 124.867188 167.191406 124.742188 167.488281 124.671875 C 167.785156 124.601562 168.082031 124.59375 168.382812 124.640625 C 168.683594 124.691406 168.964844 124.792969 169.226562 124.957031 C 169.484375 125.117188 169.703125 125.320312 169.882812 125.566406 C 170.058594 125.8125 170.183594 126.085938 170.253906 126.382812 Z M 170.253906 126.382812 " fill-opacity="1" fill-rule="nonzero"/><path fill="#d1d5db" d="M 145.0625 33.753906 C 144.066406 33.753906 143.261719 34.5625 143.261719 35.554688 C 143.261719 36.546875 144.066406 37.351562 145.0625 37.351562 C 146.054688 37.351562 146.859375 36.546875 146.859375 35.554688 C 146.859375 34.5625 146.054688 33.753906 145.0625 33.753906 Z M 145.0625 33.753906 " fill-opacity="1" fill-rule="nonzero"/><path fill="#d1d5db" d="M 137.660156 4.007812 C 138.734375 4.007812 139.605469 3.132812 139.605469 2.058594 C 139.605469 0.984375 138.734375 0.113281 137.660156 0.113281 C 136.585938 0.113281 135.710938 0.984375 135.710938 2.058594 C 135.710938 3.132812 136.585938 4.007812 137.660156 4.007812 Z M 137.660156 4.007812 " fill-opacity="1" fill-rule="nonzero"/><path fill="#d1d5db" d="M 218.585938 113.417969 C 220.007812 113.417969 221.160156 112.265625 221.160156 110.847656 C 221.160156 109.425781 220.003906 108.273438 218.585938 108.273438 C 217.167969 108.273438 216.011719 109.425781 216.011719 110.847656 C 216.011719 111.375 216.171875 111.867188 216.445312 112.277344 L 204.800781 120.878906 C 204.441406 120.738281 204.058594 120.660156 203.652344 120.660156 C 203.113281 120.660156 202.609375 120.796875 202.164062 121.035156 L 180.414062 101.703125 C 181.082031 100.925781 181.488281 99.917969 181.488281 98.8125 C 181.488281 98.625 181.472656 98.441406 181.453125 98.261719 L 204.300781 95.722656 C 204.605469 96.804688 205.597656 97.597656 206.773438 97.597656 C 208.199219 97.597656 209.347656 96.445312 209.347656 95.023438 C 209.347656 93.886719 208.609375 92.921875 207.585938 92.582031 L 209.257812 81.972656 C 209.257812 81.972656 209.285156 81.972656 209.292969 81.972656 C 210.503906 81.972656 211.484375 80.996094 211.484375 79.785156 C 211.484375 78.578125 210.503906 77.597656 209.292969 77.597656 C 208.085938 77.597656 207.105469 78.578125 207.105469 79.785156 C 207.105469 80.691406 207.652344 81.464844 208.429688 81.796875 L 206.746094 92.449219 C 206.277344 92.449219 205.839844 92.582031 205.457031 92.804688 L 185.335938 68.789062 C 186.347656 68.164062 187.027344 67.042969 187.027344 65.765625 C 187.027344 65.617188 187.015625 65.46875 186.996094 65.324219 L 198.511719 65.324219 C 198.511719 65.324219 198.511719 65.34375 198.511719 65.355469 C 198.511719 66.566406 199.492188 67.546875 200.703125 67.546875 C 201.910156 67.546875 202.890625 66.566406 202.890625 65.355469 C 202.890625 64.148438 201.910156 63.167969 200.703125 63.167969 C 199.800781 63.167969 199.03125 63.710938 198.695312 64.484375 L 186.785156 64.484375 C 186.441406 63.597656 185.761719 62.886719 184.894531 62.507812 L 183.476562 44.738281 C 184.417969 44.34375 185.082031 43.417969 185.082031 42.332031 C 185.082031 40.890625 183.914062 39.722656 182.472656 39.722656 C 181.03125 39.722656 179.863281 40.890625 179.863281 42.332031 C 179.863281 42.457031 179.875 42.578125 179.890625 42.691406 L 163.351562 47.902344 C 163.074219 46.25 161.664062 44.988281 159.953125 44.9375 L 153.339844 24.074219 C 153.816406 23.625 154.164062 23.054688 154.339844 22.410156 L 163.804688 24.175781 C 163.867188 25.394531 164.859375 26.363281 166.09375 26.363281 C 167.324219 26.363281 168.390625 25.332031 168.390625 24.0625 C 168.390625 22.789062 167.363281 21.761719 166.09375 21.761719 C 165.15625 21.761719 164.351562 22.324219 163.992188 23.125 L 154.457031 21.34375 C 154.378906 19.445312 152.820312 17.929688 150.90625 17.929688 C 149.835938 17.929688 148.878906 18.402344 148.230469 19.152344 L 117.066406 8.199219 C 117.289062 7.609375 117.421875 6.972656 117.421875 6.304688 C 117.421875 3.371094 115.039062 0.988281 112.101562 0.988281 C 109.167969 0.988281 106.785156 3.371094 106.785156 6.304688 C 106.785156 6.605469 106.816406 6.902344 106.867188 7.1875 L 75 12.554688 C 74.371094 10.839844 72.726562 9.613281 70.792969 9.613281 C 68.320312 9.613281 66.308594 11.625 66.308594 14.097656 C 66.308594 14.335938 66.332031 14.5625 66.367188 14.792969 L 23.695312 48.171875 C 22.933594 46.816406 21.484375 45.894531 19.8125 45.894531 C 17.355469 45.894531 15.367188 47.882812 15.367188 50.335938 C 15.367188 52.140625 16.441406 53.6875 17.988281 54.386719 L 2.707031 110.039062 C 1.113281 110.714844 0 112.296875 0 114.136719 C 0 115.976562 1.179688 117.636719 2.84375 118.28125 L 14.257812 163.472656 C 12.71875 164.648438 11.726562 166.492188 11.726562 168.578125 C 11.726562 172.121094 14.597656 174.996094 18.144531 174.996094 C 19.132812 174.996094 20.0625 174.765625 20.902344 174.363281 L 48.671875 202.832031 C 48.417969 203.394531 48.269531 204.019531 48.269531 204.675781 C 48.269531 207.132812 50.261719 209.121094 52.714844 209.121094 C 54.429688 209.121094 55.917969 208.144531 56.660156 206.722656 L 87.898438 217.761719 C 87.871094 218.003906 87.855469 218.246094 87.855469 218.492188 C 87.855469 222.023438 90.71875 224.886719 94.25 224.886719 C 97.503906 224.886719 100.179688 222.457031 100.585938 219.316406 L 139.164062 214.308594 C 139.394531 215.914062 140.773438 217.148438 142.441406 217.148438 C 144.273438 217.148438 145.757812 215.664062 145.757812 213.832031 C 145.757812 213.683594 145.746094 213.542969 145.726562 213.402344 L 163.753906 210.601562 L 163.703125 209.761719 L 145.511719 212.585938 C 145.34375 212.167969 145.09375 211.792969 144.78125 211.480469 L 168.097656 183.464844 C 168.484375 183.578125 168.902344 183.640625 169.328125 183.640625 C 170.28125 183.640625 171.164062 183.335938 171.886719 182.828125 L 182.988281 186.351562 C 182.988281 186.351562 182.988281 186.359375 182.988281 186.363281 C 182.988281 187.867188 184.203125 189.082031 185.707031 189.082031 C 187.210938 189.082031 188.429688 187.867188 188.429688 186.363281 C 188.429688 184.859375 187.210938 183.640625 185.707031 183.640625 C 184.503906 183.640625 183.480469 184.425781 183.125 185.511719 L 172.625 182.175781 C 173.34375 181.390625 173.78125 180.34375 173.78125 179.195312 C 173.78125 177.429688 172.746094 175.902344 171.246094 175.1875 L 172.035156 162.886719 C 172.332031 162.996094 172.648438 163.0625 172.980469 163.0625 C 174.484375 163.0625 175.699219 161.84375 175.699219 160.339844 C 175.699219 159.980469 175.628906 159.628906 175.5 159.3125 L 192.804688 150.480469 C 193.078125 150.851562 193.441406 151.15625 193.863281 151.355469 L 189.96875 164.914062 C 188.523438 164.976562 187.363281 166.167969 187.363281 167.632812 C 187.363281 169.09375 188.582031 170.351562 190.085938 170.351562 C 191.589844 170.351562 192.804688 169.136719 192.804688 167.632812 C 192.804688 166.382812 191.964844 165.332031 190.816406 165.015625 L 194.667969 151.589844 C 194.78125 151.605469 194.890625 151.613281 195.003906 151.613281 C 196.011719 151.613281 196.890625 151.0625 197.363281 150.25 L 206.953125 153.929688 C 206.949219 153.992188 206.9375 154.046875 206.9375 154.113281 C 206.9375 155.304688 207.90625 156.277344 209.101562 156.277344 C 210.296875 156.277344 211.269531 155.304688 211.269531 154.113281 C 211.269531 152.917969 210.296875 151.945312 209.101562 151.945312 C 208.269531 151.945312 207.554688 152.425781 207.191406 153.113281 L 197.667969 149.460938 C 197.707031 149.277344 197.730469 149.085938 197.730469 148.894531 C 197.730469 148.535156 197.65625 148.191406 197.53125 147.878906 L 203.332031 144.425781 L 202.902344 143.703125 L 197.101562 147.152344 C 196.601562 146.550781 195.851562 146.167969 195.007812 146.167969 C 194.347656 146.167969 193.742188 146.40625 193.265625 146.796875 L 181.757812 136.675781 C 181.980469 136.246094 182.105469 135.757812 182.105469 135.242188 C 182.105469 134.78125 182.003906 134.347656 181.828125 133.953125 L 200.902344 125.257812 C 201.429688 126.242188 202.464844 126.914062 203.660156 126.914062 C 204.132812 126.914062 204.582031 126.804688 204.984375 126.613281 L 213.222656 136.222656 L 213.863281 135.675781 L 205.699219 126.152344 C 206.363281 125.578125 206.789062 124.734375 206.789062 123.789062 C 206.789062 122.84375 206.328125 121.917969 205.605469 121.347656 L 217.042969 112.902344 C 217.476562 113.230469 218.011719 113.429688 218.597656 113.429688 Z M 24.046875 51.699219 L 33.371094 55.691406 C 32.890625 56.527344 32.609375 57.492188 32.609375 58.527344 C 32.609375 60.03125 33.195312 61.402344 34.148438 62.417969 L 21.777344 80.558594 C 21.609375 80.503906 21.433594 80.460938 21.253906 80.445312 L 20.382812 54.746094 C 22.109375 54.523438 23.527344 53.3125 24.046875 51.691406 Z M 126.492188 146.304688 C 125.945312 145.828125 125.285156 145.484375 124.550781 145.316406 L 124.339844 119.492188 C 124.464844 119.496094 124.589844 119.511719 124.714844 119.511719 C 126.488281 119.511719 128.097656 118.847656 129.328125 117.761719 C 134.238281 123.082031 145.070312 134.835938 149.742188 140.011719 C 149.121094 140.632812 148.730469 141.480469 148.699219 142.421875 L 126.492188 146.296875 Z M 133.605469 177.921875 C 133.605469 178.351562 133.683594 178.761719 133.824219 179.148438 L 110.847656 181.753906 C 110.464844 180.84375 109.8125 180.074219 108.996094 179.542969 L 122.621094 153.992188 C 122.929688 154.058594 123.246094 154.09375 123.574219 154.09375 C 124.3125 154.09375 125.011719 153.910156 125.625 153.59375 L 135.097656 175.027344 C 134.195312 175.671875 133.605469 176.726562 133.605469 177.921875 Z M 71.089844 179.089844 C 71.042969 177.363281 69.921875 175.90625 68.359375 175.378906 L 77.691406 152.898438 C 78.132812 152.996094 78.59375 153.050781 79.066406 153.050781 C 80.066406 153.050781 81.011719 152.8125 81.851562 152.402344 L 102.742188 180.34375 C 102.019531 181.128906 101.558594 182.152344 101.476562 183.277344 L 71.089844 179.085938 Z M 47.621094 145.683594 C 48.339844 145.203125 48.917969 144.523438 49.257812 143.71875 L 72.691406 147.070312 C 72.855469 149.652344 74.550781 151.816406 76.875 152.664062 L 67.523438 175.195312 C 67.371094 175.175781 67.21875 175.167969 67.066406 175.167969 C 66.210938 175.167969 65.417969 175.4375 64.765625 175.894531 L 47.617188 145.6875 Z M 21.453125 131.773438 L 32.515625 110.058594 C 33.632812 111.015625 35.078125 111.59375 36.667969 111.59375 C 36.695312 111.59375 36.726562 111.59375 36.753906 111.59375 L 44.105469 137.667969 C 42.691406 138.015625 41.542969 139.039062 41.027344 140.378906 L 22.578125 134.308594 C 22.597656 134.175781 22.609375 134.046875 22.609375 133.917969 C 22.609375 133.023438 22.148438 132.234375 21.453125 131.777344 Z M 43.96875 57.75 L 55.996094 52.90625 C 56.226562 53.710938 56.835938 54.351562 57.617188 54.632812 L 57.726562 72.957031 C 57.445312 73.109375 57.199219 73.3125 57 73.566406 L 43.050781 61.726562 C 43.667969 60.8125 44.03125 59.714844 44.03125 58.53125 C 44.03125 58.269531 44.007812 58.007812 43.972656 57.753906 Z M 150.410156 139.503906 C 145.722656 134.296875 134.855469 122.507812 129.929688 117.175781 C 131.035156 115.9375 131.710938 114.308594 131.710938 112.523438 C 131.710938 112.328125 131.699219 112.136719 131.679688 111.941406 L 153.785156 110.378906 C 154.042969 111.480469 154.816406 112.390625 155.839844 112.828125 L 152.042969 138.996094 C 151.449219 139.035156 150.886719 139.210938 150.40625 139.507812 Z M 106.34375 178.757812 C 105.21875 178.757812 104.191406 179.144531 103.363281 179.777344 L 82.589844 151.996094 C 83.925781 151.109375 84.90625 149.734375 85.28125 148.128906 L 119.140625 149.960938 C 119.25 151.597656 120.238281 152.980469 121.640625 153.660156 L 108.238281 179.144531 C 107.65625 178.898438 107.011719 178.761719 106.339844 178.761719 Z M 49.527344 142.855469 C 49.585938 142.574219 49.613281 142.28125 49.613281 141.984375 C 49.613281 140.207031 48.5625 138.675781 47.058594 137.964844 L 56.601562 122.246094 C 57.238281 122.59375 57.96875 122.796875 58.742188 122.796875 C 59.796875 122.796875 60.769531 122.425781 61.535156 121.808594 L 76.472656 140.824219 C 74.386719 141.75 72.898438 143.753906 72.699219 146.132812 Z M 42.15625 108.46875 L 54.425781 117.292969 C 54.34375 117.632812 54.292969 117.984375 54.292969 118.351562 C 54.292969 119.726562 54.914062 120.953125 55.894531 121.769531 L 46.394531 137.71875 C 46.003906 137.605469 45.59375 137.542969 45.167969 137.542969 C 45.074219 137.542969 44.984375 137.550781 44.890625 137.554688 L 37.628906 111.527344 C 39.554688 111.234375 41.199219 110.085938 42.15625 108.480469 Z M 58.53125 54.789062 C 59.773438 54.773438 60.808594 53.878906 61.042969 52.695312 L 77.847656 55.976562 C 77.847656 56.007812 77.84375 56.042969 77.84375 56.074219 C 77.84375 56.933594 78.148438 57.726562 78.652344 58.34375 L 60.273438 73.230469 C 59.875 72.894531 59.363281 72.683594 58.800781 72.683594 C 58.773438 72.683594 58.746094 72.691406 58.71875 72.691406 L 58.535156 54.792969 Z M 97.101562 44.855469 C 97.101562 44.855469 97.109375 44.855469 97.121094 44.855469 L 105.835938 70.523438 C 105.683594 70.632812 105.542969 70.757812 105.417969 70.902344 L 84.671875 57.617188 C 84.898438 57.148438 85.027344 56.628906 85.027344 56.074219 C 85.027344 55.453125 84.867188 54.867188 84.585938 54.355469 L 95.433594 44.125 C 95.851562 44.574219 96.445312 44.859375 97.105469 44.859375 Z M 120.132812 48.382812 C 120.476562 48.382812 120.8125 48.351562 121.144531 48.304688 L 127.179688 76.144531 C 126.613281 76.378906 126.144531 76.804688 125.839844 77.335938 L 109.949219 72.78125 C 109.949219 72.726562 109.960938 72.679688 109.960938 72.625 C 109.960938 71.683594 109.457031 70.867188 108.714844 70.410156 L 117.804688 48.003906 C 118.539062 48.246094 119.324219 48.382812 120.136719 48.382812 Z M 146.953125 86.933594 L 128.910156 106.9375 C 127.9375 106.210938 126.777344 105.726562 125.507812 105.582031 L 128.402344 81.519531 C 129.558594 81.460938 130.523438 80.707031 130.894531 79.664062 L 146.121094 84.027344 C 146.089844 84.210938 146.074219 84.40625 146.074219 84.597656 C 146.074219 85.492188 146.410156 86.3125 146.953125 86.933594 Z M 118.390625 115.492188 L 102.320312 122.753906 C 101.84375 122.152344 101.105469 121.757812 100.273438 121.757812 C 99.855469 121.757812 99.457031 121.859375 99.101562 122.039062 L 84.152344 101.636719 C 85.21875 100.972656 86.105469 100.058594 86.722656 98.96875 L 118.304688 109.730469 C 117.929688 110.585938 117.71875 111.53125 117.71875 112.523438 C 117.71875 113.585938 117.960938 114.585938 118.386719 115.492188 Z M 80.5 140.4375 L 80.066406 102.753906 C 80.121094 102.753906 80.171875 102.761719 80.21875 102.761719 C 81.359375 102.761719 82.441406 102.5 83.410156 102.042969 L 98.421875 122.535156 C 97.960938 123.007812 97.675781 123.644531 97.675781 124.359375 C 97.675781 124.859375 97.816406 125.324219 98.0625 125.722656 L 82.667969 141.386719 C 82.019531 140.945312 81.285156 140.621094 80.496094 140.4375 Z M 81.433594 59.667969 C 82.566406 59.667969 83.570312 59.144531 84.230469 58.324219 L 104.964844 71.605469 C 104.832031 71.917969 104.753906 72.261719 104.753906 72.625 C 104.753906 73.113281 104.890625 73.566406 105.125 73.953125 L 85.777344 90.289062 C 84.519531 88.890625 82.742188 87.96875 80.742188 87.828125 L 81.144531 59.652344 C 81.238281 59.660156 81.335938 59.664062 81.429688 59.664062 Z M 127.566406 81.433594 L 124.667969 105.539062 C 124.210938 105.539062 123.765625 105.585938 123.332031 105.671875 L 108.828125 74.769531 C 109.242188 74.484375 109.570312 74.078125 109.761719 73.605469 L 125.53125 78.125 C 125.488281 78.316406 125.464844 78.519531 125.464844 78.726562 C 125.464844 80.027344 126.359375 81.125 127.566406 81.433594 Z M 86.3125 90.949219 L 105.671875 74.601562 C 106.125 74.992188 106.714844 75.226562 107.359375 75.226562 C 107.605469 75.226562 107.84375 75.191406 108.066406 75.125 L 122.507812 105.894531 C 120.898438 106.433594 119.550781 107.539062 118.699219 108.976562 L 87.109375 98.207031 C 87.488281 97.308594 87.703125 96.320312 87.703125 95.28125 C 87.703125 93.660156 87.183594 92.167969 86.3125 90.945312 Z M 61.089844 74.980469 C 61.089844 74.464844 60.917969 74 60.632812 73.613281 L 79.328125 58.984375 C 79.628906 59.199219 79.960938 59.371094 80.316406 59.488281 L 79.910156 87.820312 C 77.726562 87.910156 75.785156 88.929688 74.472656 90.5 L 60.347656 76.65625 C 60.800781 76.238281 61.085938 75.644531 61.085938 74.980469 Z M 74.917969 100.558594 L 61.691406 115.035156 C 60.902344 114.335938 59.875 113.90625 58.742188 113.90625 C 56.960938 113.90625 55.429688 114.953125 54.71875 116.46875 L 42.542969 107.71875 C 42.875 106.949219 43.058594 106.097656 43.058594 105.207031 C 43.058594 104.078125 42.765625 103.023438 42.253906 102.105469 L 73.066406 97.488281 C 73.429688 98.660156 74.070312 99.707031 74.910156 100.558594 Z M 79.066406 140.273438 C 78.453125 140.273438 77.867188 140.363281 77.304688 140.523438 L 62.136719 121.214844 C 62.792969 120.441406 63.1875 119.445312 63.1875 118.351562 C 63.1875 117.335938 62.839844 116.402344 62.265625 115.652344 L 75.542969 101.117188 C 76.582031 101.949219 77.84375 102.503906 79.222656 102.691406 L 79.65625 140.304688 C 79.457031 140.285156 79.261719 140.273438 79.066406 140.273438 Z M 98.617188 126.359375 C 99.066406 126.730469 99.644531 126.953125 100.273438 126.953125 C 100.835938 126.953125 101.351562 126.773438 101.773438 126.476562 L 120.804688 146.179688 C 119.914062 146.890625 119.300781 147.933594 119.15625 149.125 L 85.425781 147.300781 C 85.445312 147.09375 85.457031 146.882812 85.457031 146.667969 C 85.457031 144.78125 84.632812 143.089844 83.332031 141.914062 L 98.617188 126.363281 Z M 121.523438 145.710938 L 102.375 125.878906 C 102.6875 125.449219 102.875 124.921875 102.875 124.351562 C 102.875 124.050781 102.820312 123.761719 102.726562 123.492188 L 118.796875 116.230469 C 119.828125 117.871094 121.519531 119.054688 123.503906 119.402344 L 123.714844 145.21875 C 123.667969 145.21875 123.625 145.210938 123.574219 145.210938 C 122.835938 145.210938 122.140625 145.394531 121.527344 145.710938 Z M 153.679688 109.539062 L 131.558594 111.105469 C 131.269531 109.691406 130.546875 108.4375 129.542969 107.480469 L 147.570312 87.496094 C 148.152344 87.910156 148.859375 88.152344 149.621094 88.152344 C 149.898438 88.152344 150.167969 88.113281 150.425781 88.058594 L 156.023438 106.21875 C 154.660156 106.714844 153.6875 108.011719 153.675781 109.542969 Z M 146.347656 83.214844 L 131.054688 78.828125 C 131.054688 78.792969 131.058594 78.757812 131.058594 78.722656 C 131.058594 77.175781 129.804688 75.921875 128.261719 75.921875 C 128.171875 75.921875 128.082031 75.929688 127.992188 75.9375 L 121.964844 48.144531 C 122.625 47.976562 123.246094 47.726562 123.824219 47.394531 L 147.875 81.496094 C 147.191406 81.878906 146.648438 82.484375 146.339844 83.214844 Z M 117.007812 47.691406 L 107.921875 70.085938 C 107.738281 70.046875 107.546875 70.019531 107.351562 70.019531 C 107.082031 70.019531 106.824219 70.0625 106.582031 70.136719 L 97.9375 44.683594 C 98.789062 44.347656 99.394531 43.523438 99.394531 42.554688 C 99.394531 42.492188 99.378906 42.429688 99.375 42.367188 L 112.730469 41.921875 C 113.082031 44.492188 114.738281 46.644531 117.011719 47.6875 Z M 94.800781 42.558594 C 94.800781 42.875 94.863281 43.175781 94.980469 43.453125 L 84.117188 53.703125 C 83.460938 52.953125 82.496094 52.480469 81.421875 52.480469 C 81.398438 52.480469 81.375 52.480469 81.347656 52.480469 L 72.527344 18.230469 C 72.945312 18.054688 73.332031 17.816406 73.671875 17.527344 L 95.480469 40.921875 C 95.058594 41.335938 94.796875 41.914062 94.796875 42.550781 Z M 70.792969 18.582031 C 71.140625 18.582031 71.472656 18.539062 71.796875 18.464844 L 80.5 52.605469 C 79.261719 52.933594 78.289062 53.902344 77.960938 55.144531 L 61.054688 51.84375 C 60.933594 50.953125 60.367188 50.210938 59.582031 49.839844 L 70.261719 18.546875 C 70.4375 18.570312 70.609375 18.582031 70.789062 18.582031 Z M 57.523438 76.886719 C 57.886719 77.128906 58.320312 77.265625 58.785156 77.265625 C 59.078125 77.265625 59.351562 77.207031 59.605469 77.109375 L 73.957031 91.179688 C 73.183594 92.359375 72.730469 93.765625 72.730469 95.28125 C 72.730469 95.75 72.78125 96.210938 72.867188 96.660156 L 41.734375 101.328125 C 41.460938 100.96875 41.152344 100.636719 40.808594 100.347656 Z M 156.648438 113.0625 C 156.839844 113.09375 157.035156 113.117188 157.234375 113.117188 C 159.199219 113.117188 160.792969 111.523438 160.792969 109.558594 C 160.792969 109.230469 160.742188 108.914062 160.664062 108.613281 L 173.546875 101.558594 C 173.84375 101.929688 174.191406 102.257812 174.589844 102.523438 L 152.960938 138.496094 L 156.648438 113.066406 Z M 160.339844 107.824219 C 159.730469 106.738281 158.570312 106 157.234375 106 C 157.101562 106 156.972656 106.007812 156.84375 106.023438 L 151.222656 87.769531 C 151.835938 87.460938 152.34375 86.984375 152.691406 86.394531 L 173.886719 95.679688 C 173.089844 96.484375 172.597656 97.589844 172.597656 98.808594 C 172.597656 99.539062 172.78125 100.234375 173.097656 100.847656 L 160.34375 107.824219 Z M 174.617188 95.078125 L 153.027344 85.621094 C 153.125 85.296875 153.179688 84.949219 153.179688 84.59375 C 153.179688 84.109375 153.082031 83.648438 152.90625 83.226562 L 180.503906 67.71875 C 180.835938 68.226562 181.296875 68.636719 181.832031 68.917969 L 176.023438 94.484375 C 175.511719 94.601562 175.039062 94.804688 174.613281 95.082031 Z M 180.132812 66.964844 L 152.496094 82.492188 C 152.046875 81.878906 151.414062 81.414062 150.667969 81.1875 L 159.265625 51.988281 C 159.460938 52.019531 159.65625 52.042969 159.859375 52.042969 C 160.84375 52.042969 161.738281 51.640625 162.382812 50.992188 L 180.050781 64.800781 C 179.964844 65.105469 179.917969 65.425781 179.917969 65.753906 C 179.917969 66.179688 179.992188 66.582031 180.132812 66.960938 Z M 158.457031 51.753906 L 149.832031 81.042969 C 149.765625 81.042969 149.695312 81.035156 149.625 81.035156 C 149.300781 81.035156 148.980469 81.082031 148.675781 81.164062 L 124.53125 46.929688 C 125.835938 45.976562 126.820312 44.621094 127.289062 43.042969 L 156.308594 48.273438 C 156.308594 48.34375 156.300781 48.414062 156.300781 48.484375 C 156.300781 49.953125 157.1875 51.210938 158.457031 51.753906 Z M 112.652344 41.074219 L 99.117188 41.484375 C 98.730469 40.757812 97.972656 40.257812 97.097656 40.257812 C 96.792969 40.257812 96.5 40.320312 96.238281 40.429688 L 74.160156 17.050781 C 74.53125 16.632812 74.820312 16.144531 75.015625 15.605469 L 113.203125 38.066406 C 112.847656 38.9375 112.644531 39.890625 112.644531 40.894531 C 112.644531 40.953125 112.652344 41.011719 112.652344 41.074219 Z M 69.226562 18.292969 L 58.742188 49.601562 C 58.65625 49.59375 58.570312 49.589844 58.488281 49.589844 C 57.050781 49.589844 55.886719 50.753906 55.886719 52.191406 C 55.886719 52.199219 55.886719 52.210938 55.886719 52.222656 L 43.792969 56.964844 C 43.496094 55.929688 42.921875 55.019531 42.152344 54.316406 L 68.414062 17.894531 C 68.667969 18.054688 68.941406 18.1875 69.222656 18.296875 Z M 42.511719 62.378906 L 56.597656 74.335938 C 56.539062 74.535156 56.496094 74.75 56.496094 74.96875 C 56.496094 75.460938 56.652344 75.914062 56.914062 76.285156 L 40.136719 99.835938 C 39.25 99.261719 38.214844 98.902344 37.101562 98.824219 L 39.09375 64.171875 C 40.441406 63.988281 41.632812 63.332031 42.507812 62.375 Z M 36.261719 98.824219 C 34.644531 98.921875 33.191406 99.617188 32.117188 100.699219 L 22.660156 84.734375 C 23.152344 84.285156 23.464844 83.636719 23.464844 82.910156 C 23.464844 82.117188 23.09375 81.414062 22.515625 80.964844 L 34.765625 63 C 35.722656 63.757812 36.933594 64.21875 38.242188 64.234375 L 36.25 98.828125 Z M 20.984375 85.394531 C 21.332031 85.394531 21.65625 85.320312 21.957031 85.195312 L 31.542969 101.378906 C 30.746094 102.445312 30.269531 103.765625 30.269531 105.203125 C 30.269531 105.378906 30.28125 105.546875 30.296875 105.71875 L 8.515625 112.355469 C 8.21875 111.675781 7.757812 111.089844 7.179688 110.636719 L 20.050781 85.210938 C 20.339844 85.332031 20.660156 85.394531 20.992188 85.394531 Z M 8.777344 113.152344 L 30.414062 106.558594 C 30.667969 107.714844 31.230469 108.75 32.011719 109.578125 L 20.695312 131.441406 C 20.488281 131.390625 20.269531 131.359375 20.046875 131.359375 C 19.617188 131.359375 19.214844 131.464844 18.855469 131.652344 L 7.792969 117.054688 C 8.472656 116.269531 8.886719 115.253906 8.886719 114.136719 C 8.886719 113.796875 8.847656 113.46875 8.777344 113.152344 Z M 20.535156 136.417969 C 21.308594 136.273438 21.957031 135.769531 22.3125 135.09375 L 40.789062 141.175781 C 40.746094 141.4375 40.714844 141.699219 40.714844 141.972656 C 40.714844 143.296875 41.296875 144.480469 42.214844 145.292969 L 23.363281 164.84375 C 22.410156 163.511719 20.957031 162.558594 19.28125 162.257812 L 20.535156 136.414062 Z M 23.820312 165.585938 L 42.90625 145.800781 C 43.570312 146.191406 44.339844 146.417969 45.164062 146.417969 C 45.78125 146.417969 46.371094 146.292969 46.902344 146.0625 L 64.175781 176.390625 C 63.835938 176.742188 63.558594 177.15625 63.359375 177.613281 L 24.453125 169.671875 C 24.515625 169.316406 24.558594 168.949219 24.558594 168.570312 C 24.558594 167.492188 24.289062 166.480469 23.820312 165.585938 Z M 71.019531 179.933594 L 101.484375 184.132812 C 101.675781 186.027344 102.949219 187.59375 104.679688 188.21875 L 97.964844 213.292969 C 96.917969 212.539062 95.632812 212.09375 94.246094 212.09375 C 92.859375 212.09375 91.511719 212.5625 90.449219 213.347656 L 68.316406 183.011719 C 69.699219 182.558594 70.75 181.378906 71.019531 179.929688 Z M 98.667969 213.882812 L 105.484375 188.4375 C 105.761719 188.488281 106.042969 188.519531 106.339844 188.519531 C 107.699219 188.519531 108.929688 187.960938 109.816406 187.058594 L 139.523438 212.234375 C 139.324219 212.605469 139.1875 213.019531 139.140625 213.457031 L 100.636719 218.445312 C 100.625 216.652344 99.871094 215.035156 98.667969 213.882812 Z M 140.003906 211.578125 L 110.34375 186.429688 C 110.898438 185.636719 111.226562 184.675781 111.226562 183.636719 C 111.226562 183.269531 111.179688 182.910156 111.105469 182.566406 L 134.238281 179.945312 C 134.8125 180.773438 135.726562 181.339844 136.777344 181.457031 L 141.480469 210.65625 C 140.90625 210.828125 140.40625 211.152344 140.007812 211.578125 Z M 135.832031 174.621094 L 126.335938 153.132812 C 127.359375 152.316406 128.019531 151.0625 128.019531 149.652344 C 128.019531 148.679688 127.699219 147.777344 127.167969 147.042969 L 148.773438 143.273438 C 148.988281 144.292969 149.636719 145.152344 150.523438 145.648438 L 139.421875 175.175781 C 138.808594 174.671875 138.019531 174.367188 137.160156 174.367188 C 136.691406 174.367188 136.25 174.460938 135.835938 174.621094 Z M 140.054688 175.867188 L 151.296875 145.964844 C 151.601562 146.050781 151.917969 146.101562 152.25 146.101562 C 153.128906 146.101562 153.933594 145.777344 154.554688 145.25 L 170.957031 158.515625 C 170.519531 159 170.25 159.636719 170.25 160.339844 C 170.25 160.554688 170.277344 160.765625 170.324219 160.96875 L 140.363281 176.390625 C 140.273438 176.207031 140.175781 176.03125 140.058594 175.867188 Z M 172.964844 157.617188 C 172.484375 157.617188 172.027344 157.746094 171.632812 157.964844 L 155.117188 144.628906 C 155.542969 144.042969 155.796875 143.320312 155.796875 142.542969 C 155.796875 142.261719 155.761719 141.988281 155.699219 141.722656 L 175.957031 136.066406 C 176.21875 137.027344 176.933594 137.800781 177.855469 138.152344 L 173.46875 157.660156 C 173.304688 157.628906 173.136719 157.609375 172.964844 157.609375 Z M 175.84375 135.222656 L 155.414062 140.929688 C 155.015625 140.148438 154.335938 139.535156 153.507812 139.222656 L 175.339844 102.914062 C 175.804688 103.109375 176.308594 103.21875 176.832031 103.242188 L 178.402344 132.164062 C 176.953125 132.425781 175.847656 133.695312 175.84375 135.222656 Z M 204.820312 93.34375 C 204.460938 93.757812 204.238281 94.292969 204.207031 94.878906 L 181.269531 97.429688 C 180.6875 95.648438 179.015625 94.359375 177.042969 94.359375 C 177.003906 94.359375 176.964844 94.363281 176.921875 94.363281 L 182.636719 69.210938 C 182.90625 69.277344 183.1875 69.3125 183.480469 69.3125 C 183.855469 69.3125 184.21875 69.253906 184.554688 69.148438 L 204.824219 93.339844 Z M 182.476562 44.929688 C 182.535156 44.929688 182.59375 44.925781 182.648438 44.921875 L 184.03125 62.25 C 183.847656 62.222656 183.664062 62.203125 183.476562 62.203125 C 182.148438 62.203125 181 62.925781 180.386719 63.996094 L 162.894531 50.328125 C 163.179688 49.867188 163.355469 49.335938 163.402344 48.765625 L 180.148438 43.488281 C 180.578125 44.34375 181.457031 44.929688 182.476562 44.929688 Z M 159.097656 45.015625 C 157.835938 45.289062 156.828125 46.226562 156.453125 47.449219 L 127.476562 42.226562 C 127.554688 41.796875 127.601562 41.355469 127.601562 40.902344 C 127.601562 39.214844 127.039062 37.667969 126.09375 36.414062 L 148.054688 23.605469 C 148.703125 24.476562 149.738281 25.042969 150.90625 25.042969 C 151.527344 25.042969 152.113281 24.878906 152.625 24.597656 Z M 147.742188 19.871094 C 147.496094 20.355469 147.351562 20.90625 147.351562 21.488281 C 147.351562 21.980469 147.457031 22.449219 147.632812 22.878906 L 125.546875 35.761719 C 124.183594 34.324219 122.261719 33.417969 120.125 33.417969 C 119.539062 33.417969 118.96875 33.496094 118.417969 33.621094 L 113.296875 11.484375 C 114.753906 11.148438 115.976562 10.21875 116.703125 8.964844 Z M 107.070312 8.011719 C 107.78125 10.113281 109.761719 11.628906 112.101562 11.628906 C 112.222656 11.628906 112.34375 11.617188 112.464844 11.609375 L 117.613281 33.867188 C 115.878906 34.484375 114.441406 35.71875 113.566406 37.3125 L 75.226562 14.769531 C 75.257812 14.550781 75.277344 14.332031 75.277344 14.101562 C 75.277344 13.851562 75.25 13.609375 75.214844 13.375 Z M 66.601562 15.683594 C 66.847656 16.335938 67.242188 16.917969 67.746094 17.382812 L 41.492188 53.792969 C 40.585938 53.179688 39.488281 52.824219 38.3125 52.824219 C 36.503906 52.824219 34.890625 53.671875 33.84375 54.988281 L 24.21875 50.863281 C 24.234375 50.695312 24.25 50.523438 24.25 50.351562 C 24.25 49.871094 24.171875 49.410156 24.027344 48.976562 L 66.597656 15.683594 Z M 18.785156 54.660156 C 19.03125 54.71875 19.28125 54.753906 19.539062 54.773438 L 20.414062 80.496094 C 19.320312 80.757812 18.511719 81.738281 18.511719 82.910156 C 18.511719 83.644531 18.832031 84.300781 19.339844 84.757812 L 6.46875 110.175781 C 5.863281 109.867188 5.179688 109.6875 4.449219 109.6875 C 4.179688 109.6875 3.917969 109.714844 3.660156 109.757812 Z M 3.773438 118.523438 C 3.992188 118.558594 4.214844 118.578125 4.449219 118.578125 C 5.484375 118.578125 6.4375 118.222656 7.191406 117.632812 L 18.199219 132.15625 C 17.761719 132.609375 17.496094 133.226562 17.496094 133.910156 C 17.496094 135.199219 18.449219 136.257812 19.683594 136.4375 L 18.15625 162.152344 C 18.15625 162.152344 18.148438 162.152344 18.144531 162.152344 C 17.003906 162.152344 15.933594 162.453125 15.003906 162.976562 Z M 21.660156 173.933594 C 22.886719 173.128906 23.820312 171.917969 24.265625 170.488281 L 63.117188 178.417969 C 63.070312 178.667969 63.042969 178.921875 63.042969 179.1875 C 63.042969 180.347656 63.535156 181.390625 64.324219 182.125 L 53.730469 200.347656 C 53.402344 200.273438 53.0625 200.226562 52.714844 200.226562 C 51.226562 200.226562 49.921875 200.957031 49.109375 202.074219 Z M 56.972656 205.9375 C 57.09375 205.535156 57.15625 205.113281 57.15625 204.671875 C 57.15625 202.867188 56.082031 201.320312 54.539062 200.621094 L 64.992188 182.632812 C 65.597656 182.996094 66.304688 183.210938 67.066406 183.210938 C 67.179688 183.210938 67.285156 183.203125 67.394531 183.195312 L 89.820312 213.882812 C 88.972656 214.695312 88.351562 215.742188 88.054688 216.921875 Z M 144.082031 210.945312 C 143.597656 210.667969 143.035156 210.507812 142.4375 210.507812 C 142.394531 210.507812 142.34375 210.511719 142.300781 210.515625 L 137.613281 181.445312 C 139.347656 181.222656 140.6875 179.757812 140.714844 177.96875 L 164.886719 179.367188 C 164.949219 180.984375 165.871094 182.378906 167.214844 183.105469 Z M 170.457031 174.890625 C 170.09375 174.796875 169.71875 174.738281 169.324219 174.738281 C 167.09375 174.738281 165.253906 176.382812 164.933594 178.519531 L 140.625 177.121094 C 140.617188 177.078125 140.609375 177.042969 140.59375 177.007812 L 170.691406 161.808594 C 170.878906 162.097656 171.121094 162.347656 171.398438 162.546875 L 170.449219 174.890625 Z M 192.707031 147.414062 C 192.4375 147.835938 192.28125 148.339844 192.28125 148.875 C 192.28125 149.171875 192.332031 149.457031 192.421875 149.726562 L 175.085938 158.613281 C 174.859375 158.335938 174.582031 158.105469 174.265625 157.929688 L 178.554688 138.316406 C 178.695312 138.335938 178.839844 138.347656 178.980469 138.347656 C 179.886719 138.347656 180.695312 137.964844 181.269531 137.351562 L 192.710938 147.414062 Z M 181.375 133.222656 C 180.855469 132.605469 180.105469 132.191406 179.253906 132.113281 L 177.683594 103.1875 C 178.480469 103.074219 179.210938 102.75 179.8125 102.269531 L 201.480469 121.53125 C 200.894531 122.097656 200.53125 122.890625 200.53125 123.765625 C 200.53125 124 200.558594 124.226562 200.605469 124.449219 L 181.375 133.214844 Z M 181.375 133.222656 " fill-opacity="1" fill-rule="nonzero"/><g clip-path="url(#a21519fced)"><path fill="#d1d5db" d="M 222.605469 125.28125 C 222.605469 125.523438 222.558594 125.757812 222.464844 125.984375 C 222.371094 126.210938 222.238281 126.410156 222.066406 126.582031 C 221.890625 126.757812 221.691406 126.890625 221.464844 126.984375 C 221.242188 127.078125 221.003906 127.125 220.761719 127.125 C 220.515625 127.125 220.28125 127.078125 220.054688 126.984375 C 219.828125 126.890625 219.628906 126.757812 219.457031 126.582031 C 219.285156 126.410156 219.152344 126.210938 219.058594 125.984375 C 218.964844 125.757812 218.917969 125.523438 218.917969 125.28125 C 218.917969 125.035156 218.964844 124.800781 219.058594 124.574219 C 219.152344 124.347656 219.285156 124.148438 219.457031 123.976562 C 219.628906 123.804688 219.828125 123.667969 220.054688 123.578125 C 220.28125 123.484375 220.515625 123.4375 220.761719 123.4375 C 221.003906 123.4375 221.242188 123.484375 221.464844 123.578125 C 221.691406 123.667969 221.890625 123.804688 222.066406 123.976562 C 222.238281 124.148438 222.371094 124.347656 222.464844 124.574219 C 222.558594 124.800781 222.605469 125.035156 222.605469 125.28125 Z M 222.605469 125.28125 " fill-opacity="1" fill-rule="nonzero"/></g><path fill="#d1d5db" d="M 190.011719 119.746094 C 190.082031 120.027344 190.089844 120.3125 190.042969 120.597656 C 189.996094 120.886719 189.898438 121.152344 189.746094 121.398438 C 189.59375 121.644531 189.398438 121.855469 189.164062 122.023438 C 188.925781 122.195312 188.667969 122.3125 188.386719 122.378906 C 188.105469 122.445312 187.820312 122.457031 187.53125 122.410156 C 187.246094 122.363281 186.980469 122.261719 186.734375 122.109375 C 186.484375 121.957031 186.277344 121.761719 186.109375 121.527344 C 185.9375 121.292969 185.820312 121.035156 185.753906 120.75 C 185.6875 120.46875 185.675781 120.183594 185.722656 119.898438 C 185.769531 119.609375 185.871094 119.34375 186.023438 119.097656 C 186.175781 118.851562 186.367188 118.644531 186.605469 118.472656 C 186.839844 118.304688 187.097656 118.183594 187.378906 118.117188 C 187.664062 118.050781 187.949219 118.042969 188.234375 118.089844 C 188.519531 118.132812 188.789062 118.234375 189.035156 118.386719 C 189.28125 118.539062 189.488281 118.734375 189.660156 118.96875 C 189.828125 119.203125 189.945312 119.464844 190.011719 119.746094 Z M 190.011719 119.746094 " fill-opacity="1" fill-rule="nonzero"/><path fill="#d1d5db" d="M 199.214844 135.855469 C 199.214844 136.582031 199.804688 137.171875 200.53125 137.171875 C 201.257812 137.171875 201.847656 136.582031 201.847656 135.855469 C 201.847656 135.128906 201.257812 134.539062 200.53125 134.539062 C 199.804688 134.539062 199.214844 135.128906 199.214844 135.855469 Z M 199.214844 135.855469 " fill-opacity="1" fill-rule="nonzero"/><path fill="#d1d5db" d="M 166.195312 143.890625 C 165.46875 143.890625 164.878906 144.480469 164.878906 145.203125 C 164.878906 145.929688 165.46875 146.519531 166.195312 146.519531 C 166.917969 146.519531 167.511719 145.929688 167.511719 145.203125 C 167.511719 144.480469 166.917969 143.890625 166.195312 143.890625 Z M 166.195312 143.890625 " fill-opacity="1" fill-rule="nonzero"/><path fill="#d1d5db" d="M 161.285156 95.953125 C 160.558594 95.953125 159.96875 96.542969 159.96875 97.265625 C 159.96875 97.992188 160.558594 98.582031 161.285156 98.582031 C 162.011719 98.582031 162.601562 97.992188 162.601562 97.265625 C 162.601562 96.542969 162.011719 95.953125 161.285156 95.953125 Z M 161.285156 95.953125 " fill-opacity="1" fill-rule="nonzero"/><path fill="#d1d5db" d="M 153.769531 159.015625 C 153.046875 159.015625 152.453125 159.605469 152.453125 160.332031 C 152.453125 161.058594 153.046875 161.648438 153.769531 161.648438 C 154.496094 161.648438 155.085938 161.058594 155.085938 160.332031 C 155.085938 159.605469 154.496094 159.015625 153.769531 159.015625 Z M 153.769531 159.015625 " fill-opacity="1" fill-rule="nonzero"/><path fill="#d1d5db" d="M 131.386719 189.570312 C 130.664062 189.570312 130.074219 190.160156 130.074219 190.886719 C 130.074219 191.613281 130.664062 192.203125 131.386719 192.203125 C 132.113281 192.203125 132.703125 191.613281 132.703125 190.886719 C 132.703125 190.160156 132.113281 189.570312 131.386719 189.570312 Z M 131.386719 189.570312 " fill-opacity="1" fill-rule="nonzero"/><path fill="#d1d5db" d="M 205.238281 108.164062 C 205.304688 108.445312 205.3125 108.730469 205.265625 109.015625 C 205.222656 109.300781 205.121094 109.570312 204.96875 109.816406 C 204.816406 110.0625 204.621094 110.269531 204.386719 110.441406 C 204.152344 110.609375 203.890625 110.730469 203.609375 110.796875 C 203.328125 110.863281 203.042969 110.871094 202.757812 110.824219 C 202.46875 110.78125 202.203125 110.679688 201.957031 110.527344 C 201.710938 110.375 201.5 110.179688 201.332031 109.945312 C 201.164062 109.710938 201.042969 109.449219 200.976562 109.167969 C 200.910156 108.886719 200.902344 108.601562 200.945312 108.316406 C 200.992188 108.027344 201.09375 107.761719 201.246094 107.515625 C 201.398438 107.269531 201.59375 107.058594 201.828125 106.890625 C 202.0625 106.71875 202.320312 106.601562 202.605469 106.535156 C 202.886719 106.46875 203.171875 106.457031 203.457031 106.503906 C 203.746094 106.550781 204.011719 106.652344 204.257812 106.804688 C 204.503906 106.957031 204.714844 107.152344 204.882812 107.386719 C 205.050781 107.621094 205.171875 107.878906 205.238281 108.164062 Z M 205.238281 108.164062 " fill-opacity="1" fill-rule="nonzero"/><path fill="#d1d5db" d="M 189.804688 85.464844 C 189.871094 85.75 189.882812 86.03125 189.835938 86.320312 C 189.789062 86.605469 189.691406 86.871094 189.539062 87.121094 C 189.386719 87.367188 189.191406 87.574219 188.957031 87.742188 C 188.71875 87.914062 188.460938 88.03125 188.179688 88.097656 C 187.894531 88.164062 187.613281 88.175781 187.324219 88.128906 C 187.039062 88.082031 186.773438 87.984375 186.527344 87.832031 C 186.277344 87.675781 186.070312 87.484375 185.902344 87.25 C 185.730469 87.011719 185.613281 86.753906 185.546875 86.472656 C 185.480469 86.1875 185.46875 85.90625 185.515625 85.617188 C 185.5625 85.332031 185.660156 85.066406 185.816406 84.816406 C 185.96875 84.570312 186.160156 84.363281 186.398438 84.191406 C 186.632812 84.023438 186.890625 83.90625 187.171875 83.839844 C 187.457031 83.773438 187.742188 83.761719 188.027344 83.808594 C 188.3125 83.855469 188.578125 83.953125 188.828125 84.105469 C 189.074219 84.257812 189.28125 84.453125 189.453125 84.6875 C 189.621094 84.925781 189.738281 85.183594 189.804688 85.464844 Z M 189.804688 85.464844 " fill-opacity="1" fill-rule="nonzero"/><path fill="#d1d5db" d="M 128.464844 20.984375 C 128.53125 21.265625 128.542969 21.550781 128.496094 21.839844 C 128.449219 22.125 128.351562 22.390625 128.199219 22.636719 C 128.042969 22.886719 127.851562 23.09375 127.617188 23.261719 C 127.378906 23.433594 127.121094 23.550781 126.839844 23.617188 C 126.554688 23.683594 126.273438 23.695312 125.984375 23.648438 C 125.699219 23.601562 125.433594 23.503906 125.183594 23.347656 C 124.9375 23.195312 124.730469 23.003906 124.558594 22.765625 C 124.390625 22.53125 124.273438 22.273438 124.207031 21.992188 C 124.140625 21.707031 124.128906 21.421875 124.175781 21.136719 C 124.222656 20.851562 124.320312 20.585938 124.472656 20.335938 C 124.625 20.089844 124.820312 19.882812 125.054688 19.710938 C 125.292969 19.542969 125.550781 19.425781 125.832031 19.359375 C 126.117188 19.292969 126.398438 19.28125 126.6875 19.328125 C 126.972656 19.375 127.238281 19.472656 127.488281 19.625 C 127.734375 19.777344 127.941406 19.972656 128.109375 20.207031 C 128.28125 20.445312 128.398438 20.703125 128.464844 20.984375 Z M 128.464844 20.984375 " fill-opacity="1" fill-rule="nonzero"/><path fill="#d1d5db" d="M 104.527344 20.984375 C 104.59375 21.265625 104.601562 21.550781 104.554688 21.835938 C 104.511719 22.125 104.410156 22.390625 104.257812 22.636719 C 104.105469 22.882812 103.910156 23.09375 103.675781 23.261719 C 103.441406 23.433594 103.179688 23.550781 102.898438 23.617188 C 102.617188 23.683594 102.332031 23.691406 102.046875 23.648438 C 101.757812 23.601562 101.492188 23.5 101.246094 23.347656 C 101 23.195312 100.789062 23 100.621094 22.765625 C 100.449219 22.53125 100.332031 22.273438 100.265625 21.988281 C 100.199219 21.707031 100.1875 21.421875 100.234375 21.136719 C 100.28125 20.847656 100.382812 20.582031 100.535156 20.335938 C 100.6875 20.089844 100.882812 19.878906 101.117188 19.710938 C 101.351562 19.542969 101.609375 19.421875 101.894531 19.355469 C 102.175781 19.289062 102.460938 19.28125 102.746094 19.328125 C 103.035156 19.371094 103.300781 19.472656 103.546875 19.625 C 103.792969 19.777344 104.003906 19.972656 104.171875 20.207031 C 104.339844 20.441406 104.460938 20.703125 104.527344 20.984375 Z M 104.527344 20.984375 " fill-opacity="1" fill-rule="nonzero"/><g clip-path="url(#bfc9e0b6c1)"><path fill="#d1d5db" d="M 222.890625 88.890625 C 222.957031 89.175781 222.96875 89.457031 222.921875 89.746094 C 222.875 90.03125 222.773438 90.296875 222.621094 90.546875 C 222.46875 90.792969 222.277344 91 222.039062 91.171875 C 221.804688 91.339844 221.546875 91.457031 221.261719 91.523438 C 220.980469 91.589844 220.695312 91.601562 220.410156 91.554688 C 220.125 91.507812 219.855469 91.410156 219.609375 91.257812 C 219.363281 91.105469 219.15625 90.910156 218.984375 90.675781 C 218.816406 90.4375 218.699219 90.179688 218.628906 89.898438 C 218.5625 89.613281 218.554688 89.332031 218.601562 89.042969 C 218.648438 88.757812 218.746094 88.492188 218.898438 88.242188 C 219.050781 87.996094 219.246094 87.789062 219.480469 87.621094 C 219.714844 87.449219 219.976562 87.332031 220.257812 87.265625 C 220.539062 87.199219 220.824219 87.1875 221.109375 87.234375 C 221.398438 87.28125 221.664062 87.378906 221.910156 87.53125 C 222.160156 87.6875 222.367188 87.878906 222.535156 88.113281 C 222.707031 88.351562 222.824219 88.609375 222.890625 88.890625 Z M 222.890625 88.890625 " fill-opacity="1" fill-rule="nonzero"/></g><path fill="#d1d5db" d="M 197.296875 51.640625 C 197.816406 52.320312 198.789062 52.445312 199.464844 51.925781 C 200.140625 51.40625 200.273438 50.429688 199.753906 49.753906 C 199.234375 49.074219 198.257812 48.949219 197.582031 49.46875 C 196.902344 49.988281 196.777344 50.964844 197.296875 51.640625 Z M 197.296875 51.640625 " fill-opacity="1" fill-rule="nonzero"/><path fill="#d1d5db" d="M 166.101562 34.066406 C 165.421875 34.585938 165.296875 35.5625 165.8125 36.238281 C 166.332031 36.914062 167.308594 37.042969 167.984375 36.527344 C 168.664062 36.007812 168.789062 35.03125 168.273438 34.355469 C 167.753906 33.675781 166.777344 33.550781 166.101562 34.066406 Z M 166.101562 34.066406 " fill-opacity="1" fill-rule="nonzero"/></svg>